STARTFONT 2.1
COMMENT generated by https://github.com/JonasGruenwald/kumdor_font
CONTENTVERSION 1.0
FONT kumdor_latin.bdf
SIZE 16 75
FONTBOUNDINGBOX 8 16 0 0
STARTPROPERTIES 9
FAMILY_NAME "kumdor_latin.bdf"
COPYRIGHT ""
PIXEL_SIZE 16
RESOLUTION_X 72
RESOLUTION_Y 72
CHARSET_REGISTRY "ISO10646"
CHARSET_ENCODING "1"
FONT_ASCENT 16
FONT_DESCENT 0
ENDPROPERTIES
CHARS 128
STARTCHAR U+00000
ENCODING 0
SWIDTH 500 0
DWIDTH 8 0
BBX 8 16 0 0
BITMAP
FF
FF
FF
FF
FF
FF
FF
FF
FF
FF
FF
FF
FF
FF
FF
FF
ENDCHAR
STARTCHAR U+00001
ENCODING 1
SWIDTH 500 0
DWIDTH 8 0
BBX 8 16 0 0
BITMAP
FF
FF
FF
FF
FF
FF
FF
FF
FF
FF
FF
FF
FF
FF
FF
FF
ENDCHAR
STARTCHAR U+00002
ENCODING 2
SWIDTH 500 0
DWIDTH 8 0
BBX 8 16 0 0
BITMAP
00
00
00
00
00
00
00
00
00
00
00
00
00
00
00
00
ENDCHAR
STARTCHAR U+00003
ENCODING 3
SWIDTH 500 0
DWIDTH 8 0
BBX 8 16 0 0
BITMAP
00
00
00
00
00
00
00
00
00
00
00
00
00
00
00
00
ENDCHAR
STARTCHAR U+00004
ENCODING 4
SWIDTH 500 0
DWIDTH 8 0
BBX 8 16 0 0
BITMAP
55
55
55
55
55
55
55
55
55
55
55
55
55
55
55
55
ENDCHAR
STARTCHAR U+00005
ENCODING 5
SWIDTH 500 0
DWIDTH 8 0
BBX 8 16 0 0
BITMAP
55
55
55
55
55
55
55
55
55
55
55
55
55
55
55
55
ENDCHAR
STARTCHAR U+00006
ENCODING 6
SWIDTH 500 0
DWIDTH 8 0
BBX 8 16 0 0
BITMAP
55
55
55
55
55
55
55
55
55
55
55
55
55
55
55
55
ENDCHAR
STARTCHAR U+00007
ENCODING 7
SWIDTH 500 0
DWIDTH 8 0
BBX 8 16 0 0
BITMAP
55
55
55
55
55
55
55
55
55
55
55
55
55
55
55
55
ENDCHAR
STARTCHAR U+00008
ENCODING 8
SWIDTH 500 0
DWIDTH 8 0
BBX 8 16 0 0
BITMAP
FF
FF
AA
AA
FF
FF
AA
AA
FF
FF
AA
AA
FF
FF
AA
AA
ENDCHAR
STARTCHAR U+00009
ENCODING 9
SWIDTH 500 0
DWIDTH 8 0
BBX 8 16 0 0
BITMAP
FF
FF
AA
AA
FF
FF
AA
AA
FF
FF
AA
AA
FF
FF
AA
AA
ENDCHAR
STARTCHAR U+0000A
ENCODING 10
SWIDTH 500 0
DWIDTH 8 0
BBX 8 16 0 0
BITMAP
AA
AA
00
00
AA
AA
00
00
AA
AA
00
00
AA
AA
00
00
ENDCHAR
STARTCHAR U+0000B
ENCODING 11
SWIDTH 500 0
DWIDTH 8 0
BBX 8 16 0 0
BITMAP
AA
AA
00
00
AA
AA
00
00
AA
AA
00
00
AA
AA
00
00
ENDCHAR
STARTCHAR U+0000C
ENCODING 12
SWIDTH 500 0
DWIDTH 8 0
BBX 8 16 0 0
BITMAP
55
55
55
55
55
55
55
55
55
55
55
55
55
55
55
55
ENDCHAR
STARTCHAR U+0000D
ENCODING 13
SWIDTH 500 0
DWIDTH 8 0
BBX 8 16 0 0
BITMAP
55
55
55
55
55
55
55
55
55
55
55
55
55
55
55
55
ENDCHAR
STARTCHAR U+0000E
ENCODING 14
SWIDTH 500 0
DWIDTH 8 0
BBX 8 16 0 0
BITMAP
55
55
55
55
55
55
55
55
55
55
55
55
55
55
55
55
ENDCHAR
STARTCHAR U+0000F
ENCODING 15
SWIDTH 500 0
DWIDTH 8 0
BBX 8 16 0 0
BITMAP
55
55
55
55
55
55
55
55
55
55
55
55
55
55
55
55
ENDCHAR
STARTCHAR U+00010
ENCODING 16
SWIDTH 500 0
DWIDTH 8 0
BBX 8 16 0 0
BITMAP
3C
7E
FF
FF
FF
FF
7E
3C
55
55
55
55
55
55
55
55
ENDCHAR
STARTCHAR U+00011
ENCODING 17
SWIDTH 500 0
DWIDTH 8 0
BBX 8 16 0 0
BITMAP
55
55
55
55
55
55
55
55
55
55
55
55
55
55
55
55
ENDCHAR
STARTCHAR U+00012
ENCODING 18
SWIDTH 500 0
DWIDTH 8 0
BBX 8 16 0 0
BITMAP
55
55
55
55
55
55
55
55
55
55
55
55
55
55
55
55
ENDCHAR
STARTCHAR U+00013
ENCODING 19
SWIDTH 500 0
DWIDTH 8 0
BBX 8 16 0 0
BITMAP
55
55
55
55
55
55
55
55
55
55
55
55
55
55
55
55
ENDCHAR
STARTCHAR U+00014
ENCODING 20
SWIDTH 500 0
DWIDTH 8 0
BBX 8 16 0 0
BITMAP
55
55
55
55
55
55
55
55
55
55
55
55
55
55
55
55
ENDCHAR
STARTCHAR U+00015
ENCODING 21
SWIDTH 500 0
DWIDTH 8 0
BBX 8 16 0 0
BITMAP
55
55
55
55
55
55
55
55
55
55
55
55
55
55
55
55
ENDCHAR
STARTCHAR U+00016
ENCODING 22
SWIDTH 500 0
DWIDTH 8 0
BBX 8 16 0 0
BITMAP
55
55
55
55
55
55
55
55
55
55
55
55
55
55
55
55
ENDCHAR
STARTCHAR U+00017
ENCODING 23
SWIDTH 500 0
DWIDTH 8 0
BBX 8 16 0 0
BITMAP
55
55
55
55
55
55
55
55
55
55
55
55
55
55
55
55
ENDCHAR
STARTCHAR U+00018
ENCODING 24
SWIDTH 500 0
DWIDTH 8 0
BBX 8 16 0 0
BITMAP
00
00
00
00
07
80
18
60
20
10
23
10
44
88
44
08
ENDCHAR
STARTCHAR U+00019
ENCODING 25
SWIDTH 500 0
DWIDTH 8 0
BBX 8 16 0 0
BITMAP
44
08
44
88
23
10
20
10
18
60
07
80
00
00
00
00
ENDCHAR
STARTCHAR U+0001A
ENCODING 26
SWIDTH 500 0
DWIDTH 8 0
BBX 8 16 0 0
BITMAP
00
00
38
64
64
64
64
64
64
64
64
7C
44
30
07
00
ENDCHAR
STARTCHAR U+0001B
ENCODING 27
SWIDTH 500 0
DWIDTH 8 0
BBX 8 16 0 0
BITMAP
00
00
00
00
78
68
78
68
78
68
78
68
78
68
F8
00
ENDCHAR
STARTCHAR U+0001C
ENCODING 28
SWIDTH 500 0
DWIDTH 8 0
BBX 8 16 0 0
BITMAP
00
00
00
00
08
1C
2A
49
08
08
08
00
00
00
00
00
ENDCHAR
STARTCHAR U+0001D
ENCODING 29
SWIDTH 500 0
DWIDTH 8 0
BBX 8 16 0 0
BITMAP
00
00
00
00
00
08
04
02
7F
02
04
08
00
00
00
00
ENDCHAR
STARTCHAR U+0001E
ENCODING 30
SWIDTH 500 0
DWIDTH 8 0
BBX 8 16 0 0
BITMAP
00
00
00
00
00
08
08
08
49
2A
1C
08
00
00
00
00
ENDCHAR
STARTCHAR U+0001F
ENCODING 31
SWIDTH 500 0
DWIDTH 8 0
BBX 8 16 0 0
BITMAP
00
00
00
00
00
08
10
20
7F
20
10
08
00
00
00
00
ENDCHAR
STARTCHAR U+00020
ENCODING 32
SWIDTH 500 0
DWIDTH 8 0
BBX 8 16 0 0
BITMAP
00
00
00
00
00
00
00
00
00
00
00
00
00
00
00
00
ENDCHAR
STARTCHAR U+00021
ENCODING 33
SWIDTH 500 0
DWIDTH 8 0
BBX 8 16 0 0
BITMAP
00
00
08
08
08
08
08
08
08
08
08
00
00
08
00
00
ENDCHAR
STARTCHAR U+00022
ENCODING 34
SWIDTH 500 0
DWIDTH 8 0
BBX 8 16 0 0
BITMAP
00
00
14
14
14
14
00
00
00
00
00
00
00
00
00
00
ENDCHAR
STARTCHAR U+00023
ENCODING 35
SWIDTH 500 0
DWIDTH 8 0
BBX 8 16 0 0
BITMAP
00
00
22
22
23
3E
62
22
22
23
3E
62
22
22
00
00
ENDCHAR
STARTCHAR U+00024
ENCODING 36
SWIDTH 500 0
DWIDTH 8 0
BBX 8 16 0 0
BITMAP
00
00
08
3E
49
48
48
3E
09
09
49
3E
08
08
00
00
ENDCHAR
STARTCHAR U+00025
ENCODING 37
SWIDTH 500 0
DWIDTH 8 0
BBX 8 16 0 0
BITMAP
00
00
30
49
4A
4A
34
08
08
16
29
29
49
06
00
00
ENDCHAR
STARTCHAR U+00026
ENCODING 38
SWIDTH 500 0
DWIDTH 8 0
BBX 8 16 0 0
BITMAP
00
00
18
24
24
24
18
10
29
49
45
43
22
1D
00
00
ENDCHAR
STARTCHAR U+00027
ENCODING 39
SWIDTH 500 0
DWIDTH 8 0
BBX 8 16 0 0
BITMAP
00
00
00
18
18
08
10
00
00
00
00
00
00
00
00
00
ENDCHAR
STARTCHAR U+00028
ENCODING 40
SWIDTH 500 0
DWIDTH 8 0
BBX 8 16 0 0
BITMAP
00
00
02
04
08
08
10
10
10
10
08
08
04
02
00
00
ENDCHAR
STARTCHAR U+00029
ENCODING 41
SWIDTH 500 0
DWIDTH 8 0
BBX 8 16 0 0
BITMAP
00
00
20
10
08
08
04
04
04
04
08
08
10
20
00
00
ENDCHAR
STARTCHAR U+0002A
ENCODING 42
SWIDTH 500 0
DWIDTH 8 0
BBX 8 16 0 0
BITMAP
00
00
00
08
08
49
2A
1C
2A
49
08
08
00
00
00
00
ENDCHAR
STARTCHAR U+0002B
ENCODING 43
SWIDTH 500 0
DWIDTH 8 0
BBX 8 16 0 0
BITMAP
00
00
00
08
08
08
08
7F
08
08
08
08
00
00
00
00
ENDCHAR
STARTCHAR U+0002C
ENCODING 44
SWIDTH 500 0
DWIDTH 8 0
BBX 8 16 0 0
BITMAP
00
00
00
00
00
00
00
00
00
00
00
00
10
20
20
40
ENDCHAR
STARTCHAR U+0002D
ENCODING 45
SWIDTH 500 0
DWIDTH 8 0
BBX 8 16 0 0
BITMAP
00
00
00
00
00
00
00
7F
00
00
00
00
00
00
00
00
ENDCHAR
STARTCHAR U+0002E
ENCODING 46
SWIDTH 500 0
DWIDTH 8 0
BBX 8 16 0 0
BITMAP
00
00
00
00
00
00
00
00
00
00
00
00
30
30
00
00
ENDCHAR
STARTCHAR U+0002F
ENCODING 47
SWIDTH 500 0
DWIDTH 8 0
BBX 8 16 0 0
BITMAP
00
00
00
01
02
02
04
08
08
10
20
20
40
00
00
00
ENDCHAR
STARTCHAR U+00030
ENCODING 48
SWIDTH 500 0
DWIDTH 8 0
BBX 8 16 0 0
BITMAP
00
00
1C
22
41
45
45
49
49
51
51
41
22
1C
00
00
ENDCHAR
STARTCHAR U+00031
ENCODING 49
SWIDTH 500 0
DWIDTH 8 0
BBX 8 16 0 0
BITMAP
00
00
08
18
28
08
08
08
08
08
08
08
08
3E
00
00
ENDCHAR
STARTCHAR U+00032
ENCODING 50
SWIDTH 500 0
DWIDTH 8 0
BBX 8 16 0 0
BITMAP
00
00
1C
22
41
41
01
02
04
08
10
20
40
7F
00
00
ENDCHAR
STARTCHAR U+00033
ENCODING 51
SWIDTH 500 0
DWIDTH 8 0
BBX 8 16 0 0
BITMAP
00
00
1C
22
41
41
02
0C
02
01
41
41
22
1C
00
00
ENDCHAR
STARTCHAR U+00034
ENCODING 52
SWIDTH 500 0
DWIDTH 8 0
BBX 8 16 0 0
BITMAP
00
00
06
0A
0A
12
12
22
22
42
7F
02
02
02
00
00
ENDCHAR
STARTCHAR U+00035
ENCODING 53
SWIDTH 500 0
DWIDTH 8 0
BBX 8 16 0 0
BITMAP
00
00
7E
40
40
40
5C
62
41
01
01
01
42
3C
00
00
ENDCHAR
STARTCHAR U+00036
ENCODING 54
SWIDTH 500 0
DWIDTH 8 0
BBX 8 16 0 0
BITMAP
00
00
1C
22
41
40
40
5C
62
41
41
41
22
1C
00
00
ENDCHAR
STARTCHAR U+00037
ENCODING 55
SWIDTH 500 0
DWIDTH 8 0
BBX 8 16 0 0
BITMAP
00
00
7F
01
02
02
04
04
08
08
08
10
10
10
00
00
ENDCHAR
STARTCHAR U+00038
ENCODING 56
SWIDTH 500 0
DWIDTH 8 0
BBX 8 16 0 0
BITMAP
00
00
1C
22
41
41
22
1C
22
41
41
41
22
1C
00
00
ENDCHAR
STARTCHAR U+00039
ENCODING 57
SWIDTH 500 0
DWIDTH 8 0
BBX 8 16 0 0
BITMAP
00
00
1C
22
41
41
41
23
1D
01
01
41
22
1C
00
00
ENDCHAR
STARTCHAR U+0003A
ENCODING 58
SWIDTH 500 0
DWIDTH 8 0
BBX 8 16 0 0
BITMAP
00
00
00
00
08
08
00
00
00
00
08
08
00
00
00
00
ENDCHAR
STARTCHAR U+0003B
ENCODING 59
SWIDTH 500 0
DWIDTH 8 0
BBX 8 16 0 0
BITMAP
00
00
00
00
08
08
00
00
00
00
08
08
10
10
00
00
ENDCHAR
STARTCHAR U+0003C
ENCODING 60
SWIDTH 500 0
DWIDTH 8 0
BBX 8 16 0 0
BITMAP
00
00
01
02
04
08
10
20
20
10
08
04
02
01
00
00
ENDCHAR
STARTCHAR U+0003D
ENCODING 61
SWIDTH 500 0
DWIDTH 8 0
BBX 8 16 0 0
BITMAP
00
00
00
00
00
00
7F
00
00
7F
00
00
00
00
00
00
ENDCHAR
STARTCHAR U+0003E
ENCODING 62
SWIDTH 500 0
DWIDTH 8 0
BBX 8 16 0 0
BITMAP
00
00
20
10
08
04
02
01
01
02
04
08
10
20
00
00
ENDCHAR
STARTCHAR U+0003F
ENCODING 63
SWIDTH 500 0
DWIDTH 8 0
BBX 8 16 0 0
BITMAP
00
00
1C
22
41
41
01
02
04
08
08
00
00
08
00
00
ENDCHAR
STARTCHAR U+00040
ENCODING 64
SWIDTH 500 0
DWIDTH 8 0
BBX 8 16 0 0
BITMAP
00
00
1C
22
41
41
01
39
49
49
49
49
49
36
00
00
ENDCHAR
STARTCHAR U+00041
ENCODING 65
SWIDTH 500 0
DWIDTH 8 0
BBX 8 16 0 0
BITMAP
00
00
08
14
14
14
22
22
22
3E
41
41
41
41
00
00
ENDCHAR
STARTCHAR U+00042
ENCODING 66
SWIDTH 500 0
DWIDTH 8 0
BBX 8 16 0 0
BITMAP
00
00
7C
22
21
21
22
3C
22
21
21
21
22
7C
00
00
ENDCHAR
STARTCHAR U+00043
ENCODING 67
SWIDTH 500 0
DWIDTH 8 0
BBX 8 16 0 0
BITMAP
00
00
1C
22
41
41
41
40
40
40
41
41
23
1C
00
00
ENDCHAR
STARTCHAR U+00044
ENCODING 68
SWIDTH 500 0
DWIDTH 8 0
BBX 8 16 0 0
BITMAP
00
00
7C
22
21
21
21
21
21
21
21
21
22
7C
00
00
ENDCHAR
STARTCHAR U+00045
ENCODING 69
SWIDTH 500 0
DWIDTH 8 0
BBX 8 16 0 0
BITMAP
00
00
7F
40
40
40
40
7E
40
40
40
40
40
7F
00
00
ENDCHAR
STARTCHAR U+00046
ENCODING 70
SWIDTH 500 0
DWIDTH 8 0
BBX 8 16 0 0
BITMAP
00
00
7F
40
40
40
40
7E
40
40
40
40
40
40
00
00
ENDCHAR
STARTCHAR U+00047
ENCODING 71
SWIDTH 500 0
DWIDTH 8 0
BBX 8 16 0 0
BITMAP
00
00
1C
22
41
41
40
40
4F
41
41
41
21
1F
00
00
ENDCHAR
STARTCHAR U+00048
ENCODING 72
SWIDTH 500 0
DWIDTH 8 0
BBX 8 16 0 0
BITMAP
00
00
41
41
41
41
41
41
7F
41
41
41
41
41
00
00
ENDCHAR
STARTCHAR U+00049
ENCODING 73
SWIDTH 500 0
DWIDTH 8 0
BBX 8 16 0 0
BITMAP
00
00
3E
08
08
08
08
08
08
08
08
08
08
3E
00
00
ENDCHAR
STARTCHAR U+0004A
ENCODING 74
SWIDTH 500 0
DWIDTH 8 0
BBX 8 16 0 0
BITMAP
00
00
01
01
01
01
01
01
01
01
41
41
22
1C
00
00
ENDCHAR
STARTCHAR U+0004B
ENCODING 75
SWIDTH 500 0
DWIDTH 8 0
BBX 8 16 0 0
BITMAP
00
00
41
42
44
44
48
50
68
48
44
42
42
41
00
00
ENDCHAR
STARTCHAR U+0004C
ENCODING 76
SWIDTH 500 0
DWIDTH 8 0
BBX 8 16 0 0
BITMAP
00
00
40
40
40
40
40
40
40
40
40
40
40
7F
00
00
ENDCHAR
STARTCHAR U+0004D
ENCODING 77
SWIDTH 500 0
DWIDTH 8 0
BBX 8 16 0 0
BITMAP
00
00
41
63
55
49
49
41
41
41
41
41
41
41
00
00
ENDCHAR
STARTCHAR U+0004E
ENCODING 78
SWIDTH 500 0
DWIDTH 8 0
BBX 8 16 0 0
BITMAP
00
00
41
61
61
51
51
49
49
45
45
43
43
41
00
00
ENDCHAR
STARTCHAR U+0004F
ENCODING 79
SWIDTH 500 0
DWIDTH 8 0
BBX 8 16 0 0
BITMAP
00
00
1C
22
41
41
41
41
41
41
41
41
22
1C
00
00
ENDCHAR
STARTCHAR U+00050
ENCODING 80
SWIDTH 500 0
DWIDTH 8 0
BBX 8 16 0 0
BITMAP
00
00
7C
42
41
41
41
42
7C
40
40
40
40
40
00
00
ENDCHAR
STARTCHAR U+00051
ENCODING 81
SWIDTH 500 0
DWIDTH 8 0
BBX 8 16 0 0
BITMAP
00
00
1C
22
41
41
41
41
41
59
45
45
22
1D
00
00
ENDCHAR
STARTCHAR U+00052
ENCODING 82
SWIDTH 500 0
DWIDTH 8 0
BBX 8 16 0 0
BITMAP
00
00
7C
42
41
41
41
42
7C
44
44
42
41
41
00
00
ENDCHAR
STARTCHAR U+00053
ENCODING 83
SWIDTH 500 0
DWIDTH 8 0
BBX 8 16 0 0
BITMAP
00
00
1C
22
41
40
20
1C
02
01
41
41
22
1C
00
00
ENDCHAR
STARTCHAR U+00054
ENCODING 84
SWIDTH 500 0
DWIDTH 8 0
BBX 8 16 0 0
BITMAP
00
00
7F
08
08
08
08
08
08
08
08
08
08
08
00
00
ENDCHAR
STARTCHAR U+00055
ENCODING 85
SWIDTH 500 0
DWIDTH 8 0
BBX 8 16 0 0
BITMAP
00
00
41
41
41
41
41
41
41
41
41
41
22
1C
00
00
ENDCHAR
STARTCHAR U+00056
ENCODING 86
SWIDTH 500 0
DWIDTH 8 0
BBX 8 16 0 0
BITMAP
00
00
41
41
41
41
22
22
22
22
14
14
08
08
00
00
ENDCHAR
STARTCHAR U+00057
ENCODING 87
SWIDTH 500 0
DWIDTH 8 0
BBX 8 16 0 0
BITMAP
00
00
41
41
41
41
49
49
49
49
55
55
22
22
00
00
ENDCHAR
STARTCHAR U+00058
ENCODING 88
SWIDTH 500 0
DWIDTH 8 0
BBX 8 16 0 0
BITMAP
00
00
41
41
22
22
14
08
08
14
22
22
41
41
00
00
ENDCHAR
STARTCHAR U+00059
ENCODING 89
SWIDTH 500 0
DWIDTH 8 0
BBX 8 16 0 0
BITMAP
00
00
41
41
41
22
22
14
08
08
08
08
08
08
00
00
ENDCHAR
STARTCHAR U+0005A
ENCODING 90
SWIDTH 500 0
DWIDTH 8 0
BBX 8 16 0 0
BITMAP
00
00
7F
01
02
02
04
08
08
10
20
20
40
7F
00
00
ENDCHAR
STARTCHAR U+0005B
ENCODING 91
SWIDTH 500 0
DWIDTH 8 0
BBX 8 16 0 0
BITMAP
00
00
1C
10
10
10
10
10
10
10
10
10
10
1C
00
00
ENDCHAR
STARTCHAR U+0005C
ENCODING 92
SWIDTH 500 0
DWIDTH 8 0
BBX 8 16 0 0
BITMAP
00
00
41
41
41
22
22
14
08
3E
08
3E
08
08
00
00
ENDCHAR
STARTCHAR U+0005D
ENCODING 93
SWIDTH 500 0
DWIDTH 8 0
BBX 8 16 0 0
BITMAP
00
00
1C
04
04
04
04
04
04
04
04
04
04
1C
00
00
ENDCHAR
STARTCHAR U+0005E
ENCODING 94
SWIDTH 500 0
DWIDTH 8 0
BBX 8 16 0 0
BITMAP
00
00
08
14
22
41
00
00
00
00
00
00
00
00
00
00
ENDCHAR
STARTCHAR U+0005F
ENCODING 95
SWIDTH 500 0
DWIDTH 8 0
BBX 8 16 0 0
BITMAP
00
00
00
00
00
00
00
00
00
00
00
00
00
00
00
7F
ENDCHAR
STARTCHAR U+00060
ENCODING 96
SWIDTH 500 0
DWIDTH 8 0
BBX 8 16 0 0
BITMAP
00
00
10
10
08
08
04
04
00
00
00
00
00
00
00
00
ENDCHAR
STARTCHAR U+00061
ENCODING 97
SWIDTH 500 0
DWIDTH 8 0
BBX 8 16 0 0
BITMAP
00
00
00
00
00
00
1C
22
01
1D
23
41
23
1D
00
00
ENDCHAR
STARTCHAR U+00062
ENCODING 98
SWIDTH 500 0
DWIDTH 8 0
BBX 8 16 0 0
BITMAP
00
00
40
40
40
40
5C
62
41
41
41
41
62
5C
00
00
ENDCHAR
STARTCHAR U+00063
ENCODING 99
SWIDTH 500 0
DWIDTH 8 0
BBX 8 16 0 0
BITMAP
00
00
00
00
00
00
1C
22
41
40
40
41
22
1C
00
00
ENDCHAR
STARTCHAR U+00064
ENCODING 100
SWIDTH 500 0
DWIDTH 8 0
BBX 8 16 0 0
BITMAP
00
00
01
01
01
01
1D
23
41
41
41
41
23
1D
00
00
ENDCHAR
STARTCHAR U+00065
ENCODING 101
SWIDTH 500 0
DWIDTH 8 0
BBX 8 16 0 0
BITMAP
00
00
00
00
00
00
1C
22
41
7F
40
40
21
1E
00
00
ENDCHAR
STARTCHAR U+00066
ENCODING 102
SWIDTH 500 0
DWIDTH 8 0
BBX 8 16 0 0
BITMAP
00
00
0C
12
10
10
7E
10
10
10
10
10
10
10
00
00
ENDCHAR
STARTCHAR U+00067
ENCODING 103
SWIDTH 500 0
DWIDTH 8 0
BBX 8 16 0 0
BITMAP
00
00
00
00
00
00
3D
42
42
3C
20
3E
41
41
41
3E
ENDCHAR
STARTCHAR U+00068
ENCODING 104
SWIDTH 500 0
DWIDTH 8 0
BBX 8 16 0 0
BITMAP
00
00
40
40
40
40
5C
62
41
41
41
41
41
41
00
00
ENDCHAR
STARTCHAR U+00069
ENCODING 105
SWIDTH 500 0
DWIDTH 8 0
BBX 8 16 0 0
BITMAP
00
00
00
08
00
00
08
08
08
08
08
08
08
08
00
00
ENDCHAR
STARTCHAR U+0006A
ENCODING 106
SWIDTH 500 0
DWIDTH 8 0
BBX 8 16 0 0
BITMAP
00
00
00
04
00
00
04
04
04
04
04
04
04
04
48
30
ENDCHAR
STARTCHAR U+0006B
ENCODING 107
SWIDTH 500 0
DWIDTH 8 0
BBX 8 16 0 0
BITMAP
00
00
40
40
40
40
42
44
48
50
68
44
42
41
00
00
ENDCHAR
STARTCHAR U+0006C
ENCODING 108
SWIDTH 500 0
DWIDTH 8 0
BBX 8 16 0 0
BITMAP
00
00
18
08
08
08
08
08
08
08
08
08
08
1C
00
00
ENDCHAR
STARTCHAR U+0006D
ENCODING 109
SWIDTH 500 0
DWIDTH 8 0
BBX 8 16 0 0
BITMAP
00
00
00
00
00
00
76
49
49
49
49
49
49
49
00
00
ENDCHAR
STARTCHAR U+0006E
ENCODING 110
SWIDTH 500 0
DWIDTH 8 0
BBX 8 16 0 0
BITMAP
00
00
00
00
00
00
5C
62
41
41
41
41
41
41
00
00
ENDCHAR
STARTCHAR U+0006F
ENCODING 111
SWIDTH 500 0
DWIDTH 8 0
BBX 8 16 0 0
BITMAP
00
00
00
00
00
00
1C
22
41
41
41
41
22
1C
00
00
ENDCHAR
STARTCHAR U+00070
ENCODING 112
SWIDTH 500 0
DWIDTH 8 0
BBX 8 16 0 0
BITMAP
00
00
00
00
00
00
5C
62
41
41
41
41
62
5C
40
40
ENDCHAR
STARTCHAR U+00071
ENCODING 113
SWIDTH 500 0
DWIDTH 8 0
BBX 8 16 0 0
BITMAP
00
00
00
00
00
00
1D
23
41
41
41
41
23
1D
01
01
ENDCHAR
STARTCHAR U+00072
ENCODING 114
SWIDTH 500 0
DWIDTH 8 0
BBX 8 16 0 0
BITMAP
00
00
00
00
00
00
2C
32
20
20
20
20
20
20
00
00
ENDCHAR
STARTCHAR U+00073
ENCODING 115
SWIDTH 500 0
DWIDTH 8 0
BBX 8 16 0 0
BITMAP
00
00
00
00
00
00
3C
42
40
3C
02
01
42
3C
00
00
ENDCHAR
STARTCHAR U+00074
ENCODING 116
SWIDTH 500 0
DWIDTH 8 0
BBX 8 16 0 0
BITMAP
00
00
10
10
10
10
7E
10
10
10
10
11
11
0E
00
00
ENDCHAR
STARTCHAR U+00075
ENCODING 117
SWIDTH 500 0
DWIDTH 8 0
BBX 8 16 0 0
BITMAP
00
00
00
00
00
00
41
41
41
41
41
41
23
1D
00
00
ENDCHAR
STARTCHAR U+00076
ENCODING 118
SWIDTH 500 0
DWIDTH 8 0
BBX 8 16 0 0
BITMAP
00
00
00
00
00
00
41
41
41
22
22
14
14
08
00
00
ENDCHAR
STARTCHAR U+00077
ENCODING 119
SWIDTH 500 0
DWIDTH 8 0
BBX 8 16 0 0
BITMAP
00
00
00
00
00
00
41
41
41
49
55
55
22
22
00
00
ENDCHAR
STARTCHAR U+00078
ENCODING 120
SWIDTH 500 0
DWIDTH 8 0
BBX 8 16 0 0
BITMAP
00
00
00
00
00
00
41
22
14
08
08
14
22
41
00
00
ENDCHAR
STARTCHAR U+00079
ENCODING 121
SWIDTH 500 0
DWIDTH 8 0
BBX 8 16 0 0
BITMAP
00
00
00
00
00
00
41
41
22
22
14
14
08
08
10
60
ENDCHAR
STARTCHAR U+0007A
ENCODING 122
SWIDTH 500 0
DWIDTH 8 0
BBX 8 16 0 0
BITMAP
00
00
00
00
00
00
7F
02
04
08
10
20
40
7F
00
00
ENDCHAR
STARTCHAR U+0007B
ENCODING 123
SWIDTH 500 0
DWIDTH 8 0
BBX 8 16 0 0
BITMAP
00
00
04
08
08
08
08
10
10
08
08
08
08
04
00
00
ENDCHAR
STARTCHAR U+0007C
ENCODING 124
SWIDTH 500 0
DWIDTH 8 0
BBX 8 16 0 0
BITMAP
00
00
08
08
08
08
08
00
00
08
08
08
08
08
00
00
ENDCHAR
STARTCHAR U+0007D
ENCODING 125
SWIDTH 500 0
DWIDTH 8 0
BBX 8 16 0 0
BITMAP
00
00
10
08
08
08
08
04
04
08
08
08
08
10
00
00
ENDCHAR
STARTCHAR U+0007E
ENCODING 126
SWIDTH 500 0
DWIDTH 8 0
BBX 8 16 0 0
BITMAP
00
00
00
00
00
00
31
49
46
00
00
00
00
00
00
00
ENDCHAR
STARTCHAR U+0007F
ENCODING 127
SWIDTH 500 0
DWIDTH 8 0
BBX 8 16 0 0
BITMAP
00
00
FF
FF
FF
FF
FF
FF
FF
FF
FF
FF
FF
FF
00
00
ENDCHAR
ENDFONT
